<?xml version="1.0" standalone="no"?>
<!DOCTYPE svg PUBLIC "-//W3C//DTD SVG 20010904//EN"
 "http://www.w3.org/TR/2001/REC-SVG-20010904/DTD/svg10.dtd">
<svg version="1.0" xmlns="http://www.w3.org/2000/svg"
 width="350.000000pt" height="350.000000pt" viewBox="0 0 350.000000 350.000000"
 preserveAspectRatio="xMidYMid meet">

<g transform="translate(0.000000,350.000000) scale(0.100000,-0.100000)"
fill="#000000" stroke="none">
<path d="M1385 3483 c-207 -44 -477 -163 -649 -287 -361 -260 -609 -634 -708
-1071 -26 -113 -37 -498 -19 -628 91 -641 551 -1196 1168 -1411 204 -71 277
-81 568 -81 216 0 274 3 345 19 272 59 531 180 740 346 756 602 891 1695 303
2463 -117 153 -311 327 -483 433 -85 52 -264 135 -365 168 -182 59 -236 66
-545 65 -213 0 -303 -4 -355 -16z m644 -37 c187 -34 320 -80 491 -168 476
-244 808 -696 906 -1233 21 -114 27 -486 8 -518 -9 -16 -70 24 -531 343 -286
198 -529 360 -539 360 -11 0 -170 -141 -369 -325 -192 -179 -353 -324 -357
-322 -15 5 -520 564 -528 585 -5 12 -15 22 -22 22 -7 -1 -242 -148 -523 -329
l-510 -327 -8 70 c-5 39 -6 134 -3 211 32 850 664 1538 1513 1645 96 12 372 4
472 -14z m838 -1818 c273 -183 502 -336 507 -340 26 -17 -82 -275 -183 -437
-243 -393 -648 -680 -1084 -771 -329 -68 -678 -43 -963 70 -422 168 -753 476
-940 876 -47 99 -102 250 -94 257 9 9 924 589 935 593 5 2 134 -133 284 -301
151 -168 282 -305 290 -305 9 0 178 155 376 345 198 190 364 345 368 345 4 0
231 -150 504 -332z"/>
</g>
</svg>
